<svg width="85" height="84" viewBox="0 0 85 84" fill="none" xmlns="http://www.w3.org/2000/svg">
<path d="M14.1652 70.5852C8.25945 64.6794 4.28834 58.3324 2.25187 51.5442C0.283287 44.6881 0.249346 37.9338 2.15005 31.2813C4.11863 24.561 7.8861 18.4177 13.4524 12.8513C20.5801 5.72367 28.3865 1.65073 36.8718 0.632501C45.425 -0.453615 53.8424 1.65074 62.124 6.94555L43.5922 25.4774C37.6864 22.6942 32.4934 23.5428 28.0132 28.023C24.8227 31.2135 23.533 35.0149 24.1439 39.4272C24.687 43.7717 27.2665 48.2519 31.8825 52.8679C36.4985 57.4839 41.0126 60.0974 45.425 60.7083C49.7695 61.2514 53.5369 59.9277 56.7274 56.7372C61.2076 52.257 62.0561 47.064 59.273 41.1582L77.8048 22.6264C82.9639 30.7722 85.0343 39.1557 84.0161 47.7767C82.9978 56.3978 78.9588 64.2382 71.8991 71.2979C66.3327 76.8643 60.1894 80.6317 53.469 82.6003C46.8166 84.501 40.0623 84.4671 33.2062 82.4985C26.418 80.462 20.071 76.4909 14.1652 70.5852Z" fill="#279AF1"/>
</svg>
