<svg width="482" height="240" viewBox="0 0 482 240" fill="none" xmlns="http://www.w3.org/2000/svg">
<path d="M49.824 118.608V131.76H22.368V145.968H42.912V158.736H22.368V186H5.952V118.608H49.824ZM78.036 186.768C72.788 186.768 68.052 185.648 63.828 183.408C59.668 181.168 56.372 177.968 53.94 173.808C51.572 169.648 50.388 164.784 50.388 159.216C50.388 153.712 51.604 148.88 54.036 144.72C56.468 140.496 59.796 137.264 64.02 135.024C68.244 132.784 72.98 131.664 78.228 131.664C83.476 131.664 88.212 132.784 92.436 135.024C96.66 137.264 99.988 140.496 102.42 144.72C104.852 148.88 106.068 153.712 106.068 159.216C106.068 164.72 104.82 169.584 102.324 173.808C99.892 177.968 96.532 181.168 92.244 183.408C88.02 185.648 83.284 186.768 78.036 186.768ZM78.036 172.56C81.172 172.56 83.828 171.408 86.004 169.104C88.244 166.8 89.364 163.504 89.364 159.216C89.364 154.928 88.276 151.632 86.1 149.328C83.988 147.024 81.364 145.872 78.228 145.872C75.028 145.872 72.372 147.024 70.26 149.328C68.148 151.568 67.092 154.864 67.092 159.216C67.092 163.504 68.116 166.8 70.164 169.104C72.276 171.408 74.9 172.56 78.036 172.56ZM126.393 141.36C128.313 138.416 130.713 136.112 133.593 134.448C136.473 132.72 139.673 131.856 143.193 131.856V149.232H138.681C134.585 149.232 131.513 150.128 129.465 151.92C127.417 153.648 126.393 156.72 126.393 161.136V186H109.977V132.432H126.393V141.36ZM142.976 159.216C142.976 153.648 144.096 148.784 146.336 144.624C148.64 140.464 151.808 137.264 155.84 135.024C159.936 132.784 164.608 131.664 169.856 131.664C176.576 131.664 182.176 133.424 186.656 136.944C191.2 140.464 194.176 145.424 195.584 151.824H178.112C176.64 147.728 173.792 145.68 169.568 145.68C166.56 145.68 164.16 146.864 162.368 149.232C160.576 151.536 159.68 154.864 159.68 159.216C159.68 163.568 160.576 166.928 162.368 169.296C164.16 171.6 166.56 172.752 169.568 172.752C173.792 172.752 176.64 170.704 178.112 166.608H195.584C194.176 172.88 191.2 177.808 186.656 181.392C182.112 184.976 176.512 186.768 169.856 186.768C164.608 186.768 159.936 185.648 155.84 183.408C151.808 181.168 148.64 177.968 146.336 173.808C144.096 169.648 142.976 164.784 142.976 159.216ZM250.061 158.352C250.061 159.888 249.965 161.488 249.773 163.152H212.621C212.877 166.48 213.933 169.04 215.789 170.832C217.709 172.56 220.045 173.424 222.797 173.424C226.893 173.424 229.741 171.696 231.341 168.24H248.813C247.917 171.76 246.285 174.928 243.917 177.744C241.613 180.56 238.701 182.768 235.181 184.368C231.661 185.968 227.725 186.768 223.373 186.768C218.125 186.768 213.453 185.648 209.357 183.408C205.261 181.168 202.061 177.968 199.757 173.808C197.453 169.648 196.301 164.784 196.301 159.216C196.301 153.648 197.421 148.784 199.661 144.624C201.965 140.464 205.165 137.264 209.261 135.024C213.357 132.784 218.061 131.664 223.373 131.664C228.557 131.664 233.165 132.752 237.197 134.928C241.229 137.104 244.365 140.208 246.605 144.24C248.909 148.272 250.061 152.976 250.061 158.352ZM233.261 154.032C233.261 151.216 232.301 148.976 230.381 147.312C228.461 145.648 226.061 144.816 223.181 144.816C220.429 144.816 218.093 145.616 216.173 147.216C214.317 148.816 213.165 151.088 212.717 154.032H233.261Z" fill="black"/>
<path d="M335.688 159.12C335.688 153.616 336.712 148.784 338.76 144.624C340.872 140.464 343.72 137.264 347.304 135.024C350.888 132.784 354.888 131.664 359.304 131.664C363.08 131.664 366.376 132.432 369.192 133.968C372.072 135.504 374.28 137.52 375.816 140.016V132.432H392.232V186H375.816V178.416C374.216 180.912 371.976 182.928 369.096 184.464C366.28 186 362.984 186.768 359.208 186.768C354.856 186.768 350.888 185.648 347.304 183.408C343.72 181.104 340.872 177.872 338.76 173.712C336.712 169.488 335.688 164.624 335.688 159.12ZM375.816 159.216C375.816 155.12 374.664 151.888 372.36 149.52C370.12 147.152 367.368 145.968 364.104 145.968C360.84 145.968 358.056 147.152 355.752 149.52C353.512 151.824 352.392 155.024 352.392 159.12C352.392 163.216 353.512 166.48 355.752 168.912C358.056 171.28 360.84 172.464 364.104 172.464C367.368 172.464 370.12 171.28 372.36 168.912C374.664 166.544 375.816 163.312 375.816 159.216ZM429.164 172.08V186H420.812C414.86 186 410.22 184.56 406.892 181.68C403.564 178.736 401.9 173.968 401.9 167.376V146.064H395.372V132.432H401.9V119.376H418.316V132.432H429.068V146.064H418.316V167.568C418.316 169.168 418.7 170.32 419.468 171.024C420.236 171.728 421.516 172.08 423.308 172.08H429.164ZM455.3 186.768C450.628 186.768 446.468 185.968 442.82 184.368C439.172 182.768 436.292 180.592 434.18 177.84C432.068 175.024 430.884 171.888 430.628 168.432H446.852C447.044 170.288 447.908 171.792 449.444 172.944C450.98 174.096 452.868 174.672 455.108 174.672C457.156 174.672 458.724 174.288 459.812 173.52C460.964 172.688 461.54 171.632 461.54 170.352C461.54 168.816 460.74 167.696 459.14 166.992C457.54 166.224 454.948 165.392 451.364 164.496C447.524 163.6 444.324 162.672 441.764 161.712C439.204 160.688 436.996 159.12 435.14 157.008C433.284 154.832 432.356 151.92 432.356 148.272C432.356 145.2 433.188 142.416 434.852 139.92C436.58 137.36 439.076 135.344 442.34 133.872C445.668 132.4 449.604 131.664 454.148 131.664C460.868 131.664 466.148 133.328 469.988 136.656C473.892 139.984 476.132 144.4 476.708 149.904H461.54C461.284 148.048 460.452 146.576 459.044 145.488C457.7 144.4 455.908 143.856 453.668 143.856C451.748 143.856 450.276 144.24 449.252 145.008C448.228 145.712 447.716 146.704 447.716 147.984C447.716 149.52 448.516 150.672 450.116 151.44C451.78 152.208 454.34 152.976 457.796 153.744C461.764 154.768 464.996 155.792 467.492 156.816C469.988 157.776 472.164 159.376 474.02 161.616C475.94 163.792 476.932 166.736 476.996 170.448C476.996 173.584 476.1 176.4 474.308 178.896C472.58 181.328 470.052 183.248 466.724 184.656C463.46 186.064 459.652 186.768 455.3 186.768Z" fill="black"/>
<path d="M264.165 176.585C258.259 170.679 254.288 164.332 252.252 157.544C250.283 150.688 250.249 143.934 252.15 137.281C254.119 130.561 257.886 124.418 263.452 118.851C270.58 111.724 278.387 107.651 286.872 106.633C295.425 105.546 303.842 107.651 312.124 112.946L293.592 131.477C287.686 128.694 282.493 129.543 278.013 134.023C274.823 137.213 273.533 141.015 274.144 145.427C274.687 149.772 277.266 154.252 281.882 158.868C286.498 163.484 291.013 166.097 295.425 166.708C299.769 167.251 303.537 165.928 306.727 162.737C311.208 158.257 312.056 153.064 309.273 147.158L327.805 128.626C332.964 136.772 335.034 145.156 334.016 153.777C332.998 162.398 328.959 170.238 321.899 177.298C316.333 182.864 310.189 186.632 303.469 188.6C296.817 190.501 290.062 190.467 283.206 188.499C276.418 186.462 270.071 182.491 264.165 176.585Z" fill="#279AF1"/>
</svg>
